<svg width="295" height="240" viewBox="0 0 295 294" fill="none" xmlns="http://www.w3.org/2000/svg">
<path d="M0 0H295V294H0V0Z" fill="white"/>
<path d="M14.3818 14.303H280.649V279.667H14.3818V14.303Z" fill="#FFCB05"/>
<path d="M272.315 146.221C272.315 174.548 216.442 197.509 147.53 197.509C78.6035 197.509 22.7305 174.548 22.7305 146.221C22.7305 117.894 78.6035 94.9475 147.53 94.9475C216.442 94.9475 272.315 117.894 272.315 146.221Z" fill="#00678F"/>
<path d="M101.097 120.246V150.117L114.652 120.246H135.937L123.045 171.535H109.49L117.219 138.43L101.097 171.535H90.1526V138.43L81.7451 171.535H67.5703L80.4766 120.246H101.097Z" fill="white"/>
<path d="M156.881 165.037L154.934 172.182H140.11L142.043 165.037H156.881Z" fill="#ED1D24"/>
<path d="M201.043 120.246L207.503 147.53L214.583 120.246H228.124L215.232 171.535H201.043L193.948 143.619L186.853 171.535H173.312L186.204 120.246H201.043Z" fill="white"/>
<path d="M150.435 133.241L143.134 161.421H157.958L165.274 133.241H178.814L182.03 120.246H140.11L136.88 133.241H150.435Z" fill="#FFCB05"/>
</svg>
