<svg width="207" height="198" viewBox="0 0 207 198" fill="none" xmlns="http://www.w3.org/2000/svg">
<line x1="41.957" y1="179.44" x2="164.957" y2="179.44" stroke="#868686"/>
<path d="M48.522 140.266C50.988 140.266 52.572 138.502 52.572 136.162C52.572 133.732 51.006 132.112 48.522 132.112H43.608V145H44.904V140.266H48.522ZM48.342 133.282C50.124 133.282 51.222 134.362 51.222 136.144C51.222 137.908 50.142 139.096 48.27 139.096H44.904V133.282H48.342ZM60.5146 136.288V140.914C60.5146 142.984 59.5246 144.1 57.8506 144.1C56.4646 144.1 55.5466 143.362 55.5466 141.292V136.27H54.2866V141.688C54.2866 143.812 55.4026 145.216 57.4546 145.216C58.8226 145.216 60.0286 144.532 60.5146 143.524L60.6766 145H61.7566V136.288H60.5146ZM66.3419 145V137.332H68.0879V136.288H66.3419V133.534H65.1179V136.288H63.3719V137.332H65.1179V145H66.3419ZM73.8154 148.798C74.2114 148.888 74.6074 148.924 75.1294 148.924C76.3714 148.924 77.2174 148.366 77.7214 146.998L81.7174 136.288H80.4394L77.6854 143.884L74.8774 136.288H73.5634L77.0914 145.522L76.7134 146.548C76.2814 147.718 75.5254 147.772 74.7694 147.772H73.8154V148.798ZM82.2592 140.644C82.2592 143.29 84.1312 145.216 86.6872 145.216C89.2432 145.216 91.1152 143.29 91.1152 140.644C91.1152 137.98 89.2432 136.054 86.6872 136.054C84.1312 136.054 82.2592 137.98 82.2592 140.644ZM83.5192 140.626C83.5192 138.61 84.8152 137.17 86.6872 137.17C88.5412 137.17 89.8552 138.61 89.8552 140.626C89.8552 142.678 88.5412 144.1 86.6872 144.1C84.8152 144.1 83.5192 142.678 83.5192 140.626ZM99.0107 136.288V140.914C99.0107 142.984 98.0207 144.1 96.3467 144.1C94.9607 144.1 94.0427 143.362 94.0427 141.292V136.27H92.7827V141.688C92.7827 143.812 93.8987 145.216 95.9507 145.216C97.3187 145.216 98.5247 144.532 99.0107 143.524L99.1727 145H100.253V136.288H99.0107ZM107.394 136.18C107.088 136.108 106.854 136.09 106.584 136.09C105.36 136.09 104.442 136.702 104.1 137.638L104.01 136.288H102.84V145H104.082V140.032C104.082 138.376 105.108 137.296 106.71 137.296H107.394V136.18ZM42.726 164.662C42.726 167.398 44.4 169.216 46.866 169.216C48.846 169.216 50.394 168.046 50.808 166.264H49.548C49.206 167.38 48.162 168.1 46.866 168.1C45.102 168.1 43.95 166.714 43.95 164.644C43.95 162.502 45.192 161.152 46.956 161.152C48.162 161.152 49.206 161.818 49.53 163.024H50.772C50.43 161.224 48.954 160.054 46.938 160.054C44.4 160.054 42.726 161.926 42.726 164.662ZM52.0776 164.644C52.0776 167.29 53.9496 169.216 56.5056 169.216C59.0616 169.216 60.9336 167.29 60.9336 164.644C60.9336 161.98 59.0616 160.054 56.5056 160.054C53.9496 160.054 52.0776 161.98 52.0776 164.644ZM53.3376 164.626C53.3376 162.61 54.6336 161.17 56.5056 161.17C58.3596 161.17 59.6736 162.61 59.6736 164.626C59.6736 166.678 58.3596 168.1 56.5056 168.1C54.6336 168.1 53.3376 166.678 53.3376 164.626ZM64.162 169V163.6C64.162 162.268 65.044 161.188 66.502 161.188C67.816 161.188 68.662 162.052 68.662 163.528V169H69.886V163.618C69.886 162.268 70.75 161.17 72.208 161.17C73.54 161.17 74.368 162.052 74.368 163.546V169H75.574V163.294C75.574 161.278 74.332 160.054 72.442 160.054C71.038 160.054 69.976 160.774 69.58 161.908C69.166 160.774 68.14 160.054 66.772 160.054C65.548 160.054 64.576 160.612 64.144 161.53L64 160.288H62.92V169H64.162ZM78.0724 172.798H79.3144V167.326C79.9264 168.586 81.0964 169.216 82.5724 169.216C85.1464 169.216 86.6044 167.236 86.6044 164.608C86.6044 161.98 85.0924 160.054 82.5724 160.054C81.1144 160.054 79.8904 160.702 79.2784 162.052L79.1524 160.288H78.0724V172.798ZM79.3324 164.644C79.3324 162.628 80.4484 161.188 82.3564 161.188C84.2464 161.188 85.3444 162.628 85.3444 164.644C85.3444 166.642 84.2464 168.1 82.3564 168.1C80.4484 168.1 79.3324 166.642 79.3324 164.644ZM91.0861 169.216C92.5621 169.216 93.7501 168.568 94.2901 167.47L94.4521 169H95.4961V163.366C95.4961 161.062 94.0201 160.054 92.0041 160.054C89.8621 160.054 88.4221 161.188 88.4221 162.952H89.5561C89.5561 161.782 90.4561 161.098 91.9681 161.098C93.2461 161.098 94.2721 161.638 94.2721 163.348V163.636L91.3921 163.87C89.3581 164.032 88.1341 165.04 88.1341 166.642C88.1341 168.172 89.2321 169.216 91.0861 169.216ZM91.3741 168.208C90.1861 168.208 89.3941 167.668 89.3941 166.606C89.3941 165.634 90.0601 164.914 91.6981 164.77L94.2721 164.572V165.04C94.2721 166.93 93.2101 168.208 91.3741 168.208ZM99.2304 169V164.446C99.2304 162.484 100.238 161.188 102.02 161.188C103.46 161.188 104.378 161.908 104.378 163.942V169H105.62V163.672C105.62 161.476 104.63 160.054 102.236 160.054C100.976 160.054 99.8244 160.684 99.2484 161.8L99.0684 160.288H97.9884V169H99.2304ZM107.038 172.798C107.434 172.888 107.83 172.924 108.352 172.924C109.594 172.924 110.44 172.366 110.944 170.998L114.94 160.288H113.662L110.908 167.884L108.1 160.288H106.786L110.314 169.522L109.936 170.548C109.504 171.718 108.748 171.772 107.992 171.772H107.038V172.798Z" fill="#001009"/>
<path d="M131.076 156.4H132.39V169H131.076V156.4ZM123.192 169H121.86V156.4H123.192V169ZM131.202 163.186H123.048V162.016H131.202V163.186ZM137.69 162.034H144.35V163.168H137.69V162.034ZM137.834 167.848H145.412V169H136.502V156.4H145.142V157.552H137.834V167.848ZM148.543 169V156.4H153.259C154.327 156.4 155.245 156.574 156.013 156.922C156.781 157.258 157.369 157.75 157.777 158.398C158.197 159.034 158.407 159.808 158.407 160.72C158.407 161.608 158.197 162.376 157.777 163.024C157.369 163.66 156.781 164.152 156.013 164.5C155.245 164.836 154.327 165.004 153.259 165.004H149.281L149.875 164.392V169H148.543ZM157.147 169L153.907 164.428H155.347L158.605 169H157.147ZM149.875 164.5L149.281 163.87H153.223C154.483 163.87 155.437 163.594 156.085 163.042C156.745 162.49 157.075 161.716 157.075 160.72C157.075 159.712 156.745 158.932 156.085 158.38C155.437 157.828 154.483 157.552 153.223 157.552H149.281L149.875 156.922V164.5ZM162.739 162.034H169.399V163.168H162.739V162.034ZM162.883 167.848H170.461V169H161.551V156.4H170.191V157.552H162.883V167.848Z" fill="#079D44"/>
<path d="M140.261 62.1094C140.261 62.6274 140.055 63.1242 139.689 63.4904C139.322 63.8567 138.826 64.0625 138.308 64.0625H105.104V97.2656C105.104 97.7836 104.899 98.2804 104.532 98.6467C104.166 99.013 103.669 99.2188 103.151 99.2188C102.633 99.2188 102.137 99.013 101.77 98.6467C101.404 98.2804 101.198 97.7836 101.198 97.2656V64.0625H67.9951C67.4771 64.0625 66.9803 63.8567 66.614 63.4904C66.2478 63.1242 66.042 62.6274 66.042 62.1094C66.042 61.5914 66.2478 61.0946 66.614 60.7283C66.9803 60.362 67.4771 60.1562 67.9951 60.1562H101.198V26.9531C101.198 26.4351 101.404 25.9383 101.77 25.5721C102.137 25.2058 102.633 25 103.151 25C103.669 25 104.166 25.2058 104.532 25.5721C104.899 25.9383 105.104 26.4351 105.104 26.9531V60.1562H138.308C138.826 60.1562 139.322 60.362 139.689 60.7283C140.055 61.0946 140.261 61.5914 140.261 62.1094Z" fill="#001009"/>
</svg>
