<svg width="45" height="58" viewBox="0 0 45 58" fill="none" xmlns="http://www.w3.org/2000/svg">
<path d="M19.9751 46.5419C19.9751 43.587 22.3452 41.191 25.2687 41.191C28.1903 41.191 30.5624 43.587 30.5624 46.5419C30.5624 49.4968 28.1903 51.8889 25.2687 51.8889C22.3452 51.8889 19.9751 49.4968 19.9751 46.5419ZM26.329 29.0059C22.8212 29.0059 19.9751 26.1291 19.9751 22.584V13.5551C19.9751 10.01 22.8212 7.14106 26.329 7.14106H34.8016C38.3074 7.14106 41.1516 10.01 41.1516 13.5551V22.584C41.1516 26.1291 38.3074 29.0059 34.8016 29.0059H26.329ZM45 53.0673V4.93268C45 2.21033 42.9317 0 40.3797 0H13.8049C11.2548 0 9.18651 2.21033 9.18651 4.93268V36.6492L0 53.6028L9.18651 49.5398V53.0673C9.18651 55.7916 11.2548 58 13.8049 58H40.3797C42.9297 58 45 55.7916 45 53.0673Z" fill="#EE2638"/>
</svg>
