<svg width="28" height="23" viewBox="0 0 28 23" fill="none" xmlns="http://www.w3.org/2000/svg">
<path d="M24.7777 -3.69468e-07H12.5496C10.3935 -3.69468e-07 9.3032 1.09989 9.3032 3.3056V4.37786H9.27001V17.5865C9.27001 18.0772 9.03278 18.321 8.55687 18.321H4.82551C4.3496 18.321 4.1116 18.0772 4.1116 17.5865L4.11814 -3.69468e-07H0V19.7408C0 21.9199 1.11701 23 3.32641 23H10.0308C12.2415 23 13.3576 21.9199 13.3576 19.7408V4.84289C13.3752 4.39661 13.6086 4.16952 14.0657 4.16952H16.6261L16.5163 23H20.7537L20.6771 4.16952H23.2843C23.7354 4.16952 23.9943 4.40945 23.9943 4.88929L23.8212 23H28V3.33127C28 1.09989 26.933 -3.69468e-07 24.7777 -3.69468e-07Z" fill="#61C332"/>

</svg>
