<svg width="58" height="47" viewBox="0 0 58 47" fill="none" xmlns="http://www.w3.org/2000/svg">
<path d="M51.3251 0H25.9955C21.5293 0 19.2709 2.2476 19.2709 6.75492V8.94606H19.2022V35.9375C19.2022 36.9403 18.7108 37.4386 17.7249 37.4386H9.99571C9.00989 37.4386 8.51688 36.9403 8.51688 35.9375L8.53043 0H0V40.3399C0 44.7927 2.3138 47 6.89043 47H20.7781C25.3573 47 27.6693 44.7927 27.6693 40.3399V9.89634C27.7057 8.98439 28.1892 8.52032 29.1362 8.52032H34.4398L34.2123 47H42.9899L42.8311 8.52032H48.2318C49.1662 8.52032 49.7025 9.01061 49.7025 9.99116L49.344 47H58V6.80738C58 2.2476 55.7897 0 51.3251 0Z" fill="#61C332"/>
</svg>
