<svg width="39" height="30" viewBox="0 0 39 30" fill="none" xmlns="http://www.w3.org/2000/svg">
<path d="M2.22641 10.4019L19.4994 27.7612L36.7724 10.4019L28.635 2.22217C26.1182 4.48486 22.903 5.72283 19.5006 5.72283C16.0958 5.72283 12.8807 4.48486 10.3626 2.22217L2.22641 10.4019ZM19.4994 30L0 10.4019L10.3484 1.8299e-07L10.9032 0.557622C13.2007 2.86797 16.2511 4.13814 19.5006 4.13814C22.7465 4.13814 25.7993 2.86797 28.0944 0.557622L28.6516 1.8299e-07L39 10.4019L19.4994 30Z" fill="#ED0F7B"/>
<path d="M22.7547 9L22.5254 9.2435C21.5837 10.2432 20.3327 10.7941 19.0006 10.7941C17.6673 10.7941 16.4152 10.2432 15.4735 9.2435L15.2441 9L11 13.508L18.9994 22L27 13.508L22.7547 9Z" fill="#ED0F7B"/>
</svg>