<svg width="50" height="50" viewBox="0 0 50 50" fill="none" xmlns="http://www.w3.org/2000/svg">
<path d="M17.8764 25.8352C17.8764 18.9539 22.6135 13.1621 28.9886 11.5375C27.8164 11.2314 26.621 11.0716 25.3468 11.0716C17.1893 11.0716 10.5735 17.6931 10.5735 25.8352C10.5735 33.9793 17.1893 40.6104 25.3468 40.6104C26.621 40.6104 27.8164 40.439 28.9886 40.1291C22.6135 38.5103 17.8764 32.732 17.8764 25.8352Z" fill="#236EB7"/>
<path d="M25.0019 4.69666C13.807 4.69666 4.70047 13.8051 4.70047 25C4.70047 36.1949 13.807 45.3014 25.0019 45.3014C36.1969 45.3014 45.3033 36.1949 45.3033 25C45.3033 13.8051 36.1969 4.69666 25.0019 4.69666ZM25.0019 49.9961C11.2181 49.9961 0 38.7819 0 25C0 11.2161 11.2181 -5.72205e-05 25.0019 -5.72205e-05C38.7858 -5.72205e-05 50 11.2161 50 25C50 38.7819 38.7858 49.9961 25.0019 49.9961Z" fill="#4E4F55"/>
</svg>
