<svg width="51" height="72" viewBox="0 0 51 72" fill="none" xmlns="http://www.w3.org/2000/svg">
<mask id="mask0_229_3028" style="mask-type:luminance" maskUnits="userSpaceOnUse" x="0" y="0" width="51" height="72">
<path d="M21.5877 27.5158V59.3275H19.7957V24.2183H20.2682L26.9295 23.9189L13.3097 0.0152512L0 24.2183H7.12749V72H7.25572H19.7957H21.5877H33.5502H34.2602L34.2645 40.1905H36.2917H38.3296H43.5496V44.1188H38.3296V44.1423H36.2404V56.5689H50.9679V55.9616H51V40.1905V27.7617V27.5158H21.5877Z" fill="white"/>
</mask>
<g mask="url(#mask0_229_3028)">
<path d="M21.5877 27.5158V59.3275H19.7957V24.2183H20.2682L26.9295 23.9189L13.3097 0.0152512L0 24.2183H7.12749V72H7.25572H19.7957H21.5877H33.5502H34.2602L34.2645 40.1905H36.2917H38.3296H43.5496V44.1188H38.3296V44.1423H36.2404V56.5689H50.9679V55.9616H51V40.1905V27.7617V27.5158H21.5877Z" fill="url(#paint0_linear_229_3028)"/>
</g>
<defs>
<linearGradient id="paint0_linear_229_3028" x1="27.1477" y1="72.6693" x2="23.5624" y2="-29.1548" gradientUnits="userSpaceOnUse">
<stop stop-color="#595A61"/>
<stop offset="1" stop-color="#C3C2C1"/>
</linearGradient>
</defs>
</svg>
